<svg xmlns="http://www.w3.org/2000/svg" viewBox="0 0 58.25 58.25"><defs><style>.cls-1{fill:#1e4fad;}.cls-2{fill:#fff;fill-rule:evenodd;}</style></defs><g id="Capa_2" data-name="Capa 2"><g id="Layer_1" data-name="Layer 1"><path class="cls-1" d="M54.16,29.13A25,25,0,0,1,35,53.46a24.26,24.26,0,0,1-5.87.71c-.57,0-1.12,0-1.67-.07a25,25,0,1,1,26.71-25Z"/><path class="cls-1" d="M34.42.48A30.19,30.19,0,0,0,29.12,0,28.92,28.92,0,0,0,17.71,2.32a.52.52,0,0,0,.21,1,.45.45,0,0,0,.2,0A28.09,28.09,0,0,1,34.23,1.51a.53.53,0,0,0,.62-.42A.52.52,0,0,0,34.42.48ZM51,9.87a28.85,28.85,0,0,0-5.18-4.63.52.52,0,0,0-.73.12.5.5,0,0,0,.13.72,28.81,28.81,0,0,1,5,4.48.57.57,0,0,0,.4.18.51.51,0,0,0,.34-.14A.5.5,0,0,0,51,9.87ZM5.53,12.94a.51.51,0,0,0-.72.14,27.37,27.37,0,0,0-2.24,4.07.51.51,0,0,0,.25.69.54.54,0,0,0,.22,0,.55.55,0,0,0,.48-.3,25.79,25.79,0,0,1,2.16-3.92A.53.53,0,0,0,5.53,12.94Zm50.38,4.75a29.83,29.83,0,0,0-2.16-4.11.52.52,0,1,0-.88.56,26.23,26.23,0,0,1,2.08,4,.53.53,0,0,0,.48.32.71.71,0,0,0,.21,0A.53.53,0,0,0,55.91,17.69ZM1.64,21.16a.52.52,0,0,0-.65.36,30.23,30.23,0,0,0-1,6.89A.53.53,0,0,0,.51,29h0A.53.53,0,0,0,1,28.44a28.62,28.62,0,0,1,1-6.65A.51.51,0,0,0,1.64,21.16Zm56.08,7.45a.52.52,0,0,0-.52.52,27.92,27.92,0,0,1-4.67,15.51.52.52,0,0,0,.15.72.47.47,0,0,0,.28.09.53.53,0,0,0,.44-.23,29,29,0,0,0,4.85-16.09A.52.52,0,0,0,57.72,28.61ZM13.63,52.55A28,28,0,0,1,3.26,40.09a.53.53,0,0,0-.68-.28.53.53,0,0,0-.28.69A29.2,29.2,0,0,0,13.05,53.43a.57.57,0,0,0,.29.08.49.49,0,0,0,.43-.24A.51.51,0,0,0,13.63,52.55Zm31.12.54a.51.51,0,0,0-.72-.16A27.69,27.69,0,0,1,38,55.78a.53.53,0,0,0-.34.66.53.53,0,0,0,.5.37.45.45,0,0,0,.16,0,29.26,29.26,0,0,0,6.3-3A.53.53,0,0,0,44.75,53.09ZM33.61,56.85a27.57,27.57,0,0,1-4.46.35.53.53,0,0,0,0,1,29.81,29.81,0,0,0,4.63-.37.52.52,0,0,0,.43-.6A.52.52,0,0,0,33.61,56.85Z"/><path class="cls-2" d="M35,24.51c0,1.55-.06,5.15-.06,5.15H42.1c-.33,2.48-.64,4.87-1,7.27H35V53.46a24.26,24.26,0,0,1-5.87.71c-.57,0-1.12,0-1.67-.07V36.91H21.28V29.66h6.21v-.54c0-1.46,0-2.91,0-4.37A20.06,20.06,0,0,1,27.72,22,8.12,8.12,0,0,1,31,16.55a9.36,9.36,0,0,1,5.42-1.67c1.28,0,2.56,0,3.84.08.7,0,1.4.14,2,.2v6.49h-.51c-1.25,0-2.49,0-3.74,0C36.33,21.72,35.06,22.37,35,24.51Z"/></g></g></svg>