<svg xmlns="http://www.w3.org/2000/svg" xmlns:xlink="http://www.w3.org/1999/xlink" viewBox="0 0 58.24 58.25"><defs><style>.cls-1{fill:url(#linear-gradient);}.cls-2{fill:url(#linear-gradient-2);}.cls-3{fill:#fff;}</style><linearGradient id="linear-gradient" x1="56.24" y1="2" x2="-8.3" y2="66.54" gradientTransform="translate(50.77 -5.9) rotate(76.72)" gradientUnits="userSpaceOnUse"><stop offset="0.01" stop-color="#3542e0"/><stop offset="0.17" stop-color="#3841df"/><stop offset="0.27" stop-color="#403fda"/><stop offset="0.36" stop-color="#4e3cd2"/><stop offset="0.43" stop-color="#6337c7"/><stop offset="0.5" stop-color="#7d31b9"/><stop offset="0.56" stop-color="#9e2aa8"/><stop offset="0.62" stop-color="#c32193"/><stop offset="0.62" stop-color="#c82091"/><stop offset="0.76" stop-color="#f62b37"/><stop offset="1" stop-color="#ffc658"/></linearGradient><linearGradient id="linear-gradient-2" x1="56.25" y1="2" x2="-8.3" y2="66.55" gradientTransform="matrix(1, 0, 0, 1, 0, 0)" xlink:href="#linear-gradient"/></defs><g id="Capa_2" data-name="Capa 2"><g id="Layer_1" data-name="Layer 1"><circle class="cls-1" cx="29.12" cy="29.13" r="25.04" transform="translate(-5.92 50.77) rotate(-76.72)"/><path class="cls-2" d="M29.15,58.25a.53.53,0,0,1-.53-.52.52.52,0,0,1,.53-.52,27.57,27.57,0,0,0,4.46-.36.52.52,0,0,1,.17,1,29.81,29.81,0,0,1-4.63.37Zm9-1.45a.53.53,0,0,1-.5-.35.52.52,0,0,1,.33-.66A27.86,27.86,0,0,0,44,52.92a.53.53,0,0,1,.72.17.52.52,0,0,1-.17.72,28.94,28.94,0,0,1-6.29,3ZM13.34,53.51a.52.52,0,0,1-.29-.09A29.12,29.12,0,0,1,2.3,40.5a.51.51,0,0,1,.27-.68.53.53,0,0,1,.69.27A28,28,0,0,0,13.63,52.55a.52.52,0,0,1,.14.72A.5.5,0,0,1,13.34,53.51ZM53,45.45a.52.52,0,0,1-.43-.81A28,28,0,0,0,57.2,29.12a.52.52,0,0,1,1,0,29,29,0,0,1-4.84,16.1A.53.53,0,0,1,53,45.45ZM.52,29h0A.53.53,0,0,1,0,28.41a29.61,29.61,0,0,1,1-6.89.52.52,0,0,1,.64-.36A.52.52,0,0,1,2,21.8a28.46,28.46,0,0,0-1,6.64A.52.52,0,0,1,.52,29ZM55.43,18.42A.53.53,0,0,1,55,18.1a27.69,27.69,0,0,0-2.08-4,.52.52,0,1,1,.88-.56,28.78,28.78,0,0,1,2.16,4.11.52.52,0,0,1-.48.73ZM3,17.89a.54.54,0,0,1-.21-.05.52.52,0,0,1-.26-.69,28.82,28.82,0,0,1,2.25-4.07.52.52,0,0,1,.72-.15.54.54,0,0,1,.15.73,26.75,26.75,0,0,0-2.17,3.92A.54.54,0,0,1,3,17.89Zm47.54-7.16a.56.56,0,0,1-.39-.17,28,28,0,0,0-5-4.47.52.52,0,0,1-.13-.73.54.54,0,0,1,.73-.13A29.31,29.31,0,0,1,51,9.87a.52.52,0,0,1-.4.86ZM17.92,3.32a.52.52,0,0,1-.2-1A28.87,28.87,0,0,1,29.12,0a29.35,29.35,0,0,1,5.3.48.53.53,0,0,1,.42.61.52.52,0,0,1-.61.42A28.08,28.08,0,0,0,29.12,1a27.78,27.78,0,0,0-11,2.24A.65.65,0,0,1,17.92,3.32Z"/><path class="cls-3" d="M44.6,21.29a8.4,8.4,0,0,0-2.55-5.37,8.72,8.72,0,0,0-5.77-2.34c-3.69-.2-12.47-.33-15.56.17a7.94,7.94,0,0,0-6.8,6.11c-.75,2.68-.61,15-.17,17.66a8,8,0,0,0,6.32,6.87c2.48.64,14.68.55,17.42.11a8,8,0,0,0,6.89-6.29C45.1,35.46,44.85,23.77,44.6,21.29ZM41.7,37a5.32,5.32,0,0,1-5,4.75c-2.54.28-13.87.44-16.22-.22a5.18,5.18,0,0,1-3.92-4.45,106.29,106.29,0,0,1,0-15.87,5.32,5.32,0,0,1,5-4.74A111.13,111.13,0,0,1,37,16.55a5.32,5.32,0,0,1,4.74,5A110.75,110.75,0,0,1,41.7,37ZM29.12,21.06a8.07,8.07,0,1,0,8.07,8.07A8.07,8.07,0,0,0,29.12,21.06Zm-.05,13.28a5.22,5.22,0,1,1,5.26-5.17A5.22,5.22,0,0,1,29.07,34.34ZM39.39,20.76a1.89,1.89,0,1,1-1.88-1.9A1.89,1.89,0,0,1,39.39,20.76Z"/><path class="cls-3" d="M44.6,21.29a8.4,8.4,0,0,0-2.55-5.37,8.72,8.72,0,0,0-5.77-2.34c-3.69-.2-12.47-.33-15.56.17a7.94,7.94,0,0,0-6.8,6.11c-.75,2.68-.61,15-.17,17.66a8,8,0,0,0,6.32,6.87c2.48.64,14.68.55,17.42.11a8,8,0,0,0,6.89-6.29C45.1,35.46,44.85,23.77,44.6,21.29ZM41.7,37a5.32,5.32,0,0,1-5,4.75c-2.54.28-13.87.44-16.22-.22a5.18,5.18,0,0,1-3.92-4.45,106.29,106.29,0,0,1,0-15.87,5.32,5.32,0,0,1,5-4.74A111.13,111.13,0,0,1,37,16.55a5.32,5.32,0,0,1,4.74,5A110.75,110.75,0,0,1,41.7,37ZM29.12,21.06a8.07,8.07,0,1,0,8.07,8.07A8.07,8.07,0,0,0,29.12,21.06Zm-.05,13.28a5.22,5.22,0,1,1,5.26-5.17A5.22,5.22,0,0,1,29.07,34.34ZM39.39,20.76a1.89,1.89,0,1,1-1.88-1.9A1.89,1.89,0,0,1,39.39,20.76Z"/></g></g></svg>