<svg xmlns="http://www.w3.org/2000/svg" viewBox="0 0 58.24 58.25"><defs><style>.cls-1{fill:#0b8f21;}.cls-2{fill:#fff;fill-rule:evenodd;}</style></defs><g id="Capa_2" data-name="Capa 2"><g id="Layer_1" data-name="Layer 1"><circle class="cls-1" cx="29.12" cy="29.13" r="25.04" transform="translate(-5.92 50.77) rotate(-76.72)"/><path class="cls-1" d="M29.15,58.25a.53.53,0,0,1-.53-.52.52.52,0,0,1,.53-.52,27.57,27.57,0,0,0,4.46-.36.52.52,0,0,1,.17,1,29.81,29.81,0,0,1-4.63.37Zm9-1.45a.53.53,0,0,1-.5-.35.52.52,0,0,1,.33-.66A27.86,27.86,0,0,0,44,52.92a.53.53,0,0,1,.72.17.52.52,0,0,1-.17.72,28.94,28.94,0,0,1-6.29,3ZM13.34,53.51a.52.52,0,0,1-.29-.09A29.12,29.12,0,0,1,2.3,40.5a.51.51,0,0,1,.27-.68.53.53,0,0,1,.69.27A28,28,0,0,0,13.63,52.55a.52.52,0,0,1,.14.72A.5.5,0,0,1,13.34,53.51ZM53,45.45a.52.52,0,0,1-.43-.81A28,28,0,0,0,57.2,29.12a.52.52,0,0,1,1,0,29,29,0,0,1-4.84,16.1A.53.53,0,0,1,53,45.45ZM.52,29h0A.53.53,0,0,1,0,28.41a29.61,29.61,0,0,1,1-6.89.52.52,0,0,1,.64-.36A.52.52,0,0,1,2,21.8a28.46,28.46,0,0,0-1,6.64A.52.52,0,0,1,.52,29ZM55.43,18.42A.53.53,0,0,1,55,18.1a27.69,27.69,0,0,0-2.08-4,.52.52,0,1,1,.88-.56,28.78,28.78,0,0,1,2.16,4.11.52.52,0,0,1-.48.73ZM3,17.89a.54.54,0,0,1-.21-.05.52.52,0,0,1-.26-.69,28.82,28.82,0,0,1,2.25-4.07.52.52,0,0,1,.72-.15.54.54,0,0,1,.15.73,26.75,26.75,0,0,0-2.17,3.92A.54.54,0,0,1,3,17.89Zm47.54-7.16a.56.56,0,0,1-.39-.17,28,28,0,0,0-5-4.47.52.52,0,0,1-.13-.73.54.54,0,0,1,.73-.13A29.31,29.31,0,0,1,51,9.87a.52.52,0,0,1-.4.86ZM17.92,3.32a.52.52,0,0,1-.2-1A28.87,28.87,0,0,1,29.12,0a29.35,29.35,0,0,1,5.3.48.53.53,0,0,1,.42.61.52.52,0,0,1-.61.42A28.08,28.08,0,0,0,29.12,1a27.78,27.78,0,0,0-11,2.24A.65.65,0,0,1,17.92,3.32Z"/><path class="cls-2" d="M13.3,45l.5-1.9c.53-1.93,1.07-3.85,1.57-5.78a1.42,1.42,0,0,0-.1-.93,15.92,15.92,0,1,1,16.81,8.15,16.12,16.12,0,0,1-9.94-1.45,1.55,1.55,0,0,0-1-.11C17,44.07,14.15,44.86,13.3,45ZM17,41.37c1.58-.41,3-.77,4.49-1.18a1.29,1.29,0,0,1,1.08.16A13,13,0,0,0,31.39,42a13.29,13.29,0,1,0-13.7-6.72,2.79,2.79,0,0,1,.3,2.53C17.59,38.94,17.35,40.11,17,41.37Z"/><path class="cls-2" d="M33.45,36.49C30.34,36.38,25.4,33.93,22,28a4.78,4.78,0,0,1,.73-6.11,2.21,2.21,0,0,1,2.05-.3c.17,0,.35.29.43.48.45,1,.9,2.06,1.29,3.11.21.55-.17,1.08-1,2a.7.7,0,0,0-.11.91A10.93,10.93,0,0,0,31,32.87a.66.66,0,0,0,.83-.23c1.27-1.55,1.4-2,2.07-1.68,3.21,1.53,3.46,1.6,3.48,2A3.5,3.5,0,0,1,33.45,36.49Z"/></g></g></svg>